# xmcd
#
# Track frame offsets: 
#        151
#        20760
#        41993
#        63064
#        80067
#        99318
#        118357
#        138200
#        157557
#        173932
#        195049
#        212590
#
# Disc length: 3114 seconds
#
# Revision: 1
# Processed by: cddbd v1.5.2PL0 Copyright (c) Steve Scherf et al.
# Submitted via: ExactAudioCopyFreeDBPlugin 1.0
#
DISCID=970c280c
DTITLE=满江 - 奇迹
DYEAR=2002
DGENRE=Pop
TTITLE0=两个夏天
TTITLE1=奇迹（你相信吗？版）
TTITLE2=屋顶上的秋天
TTITLE3=等你出现
TTITLE4=爱情海
TTITLE5=最爱
TTITLE6=背影
TTITLE7=为你写首歌
TTITLE8=花之旅
TTITLE9=恋爱中的城市
TTITLE10=奇迹（我得到了！版）
TTITLE11=屋顶上的秋天（后现代之倒转乾坤版）
EXTD=
EXTT0=
EXTT1=
EXTT2=
EXTT3=
EXTT4=
EXTT5=
EXTT6=
EXTT7=
EXTT8=
EXTT9=
EXTT10=
EXTT11=
PLAYORDER=
